<svg xmlns="http://www.w3.org/2000/svg" viewBox="0 0 22 30">
    <path
            fill="#1c2229"
            d="M21.458,0l-2.566,0c0,0.645 -0.033,1.296 -0.098,1.933c-0.47,4.628 -2.633,8.908 -6.092,12.051c-3.482,3.165 -7.993,4.908 -12.702,4.908l0,2.566c5.349,0 10.473,-1.98 14.428,-5.575c3.928,-3.57 6.385,-8.432 6.919,-13.691c0.074,-0.723 0.111,-1.46 0.111,-2.192ZM16.278,0l-2.556,0c0,0.469 -0.024,0.941 -0.071,1.405c-0.341,3.361 -1.912,6.47 -4.425,8.753c-2.529,2.299 -5.805,3.564 -9.226,3.564l0,2.557c4.058,0 7.945,-1.502 10.945,-4.23c2.98,-2.708 4.844,-6.396 5.249,-10.386c0.056,-0.549 0.084,-1.108 0.084,-1.663ZM11.099,0l-2.537,0c0,0.293 -0.015,0.588 -0.044,0.877c-0.445,4.381 -4.107,7.685 -8.518,7.685l0,2.537c2.767,0 5.417,-1.024 7.463,-2.884c2.031,-1.846 3.302,-4.361 3.579,-7.082c0.038,-0.374 0.057,-0.755 0.057,-1.133Z"
    ></path>
    <path
            fill="#52a3ff"
            d="M21.458,29.999l-2.566,0c0,-0.646 -0.033,-1.296 -0.098,-1.934c-0.47,-4.627 -2.633,-8.907 -6.092,-12.051c-3.482,-3.165 -7.993,-4.907 -12.702,-4.907l0,-2.567c5.349,0 10.473,1.98 14.428,5.575c3.928,3.57 6.385,8.432 6.919,13.691c0.074,0.723 0.111,1.461 0.111,2.193ZM16.278,29.998l-2.556,0c0,-0.468 -0.024,-0.941 -0.071,-1.404c-0.341,-3.361 -1.912,-6.47 -4.425,-8.753c-2.529,-2.299 -5.805,-3.565 -9.226,-3.565l0,-2.556c4.058,0 7.945,1.502 10.945,4.229c2.98,2.708 4.844,6.397 5.249,10.387c0.056,0.548 0.084,1.108 0.084,1.662ZM11.099,29.998l-2.537,0c0,-0.292 -0.015,-0.587 -0.044,-0.877c-0.445,-4.381 -4.107,-7.685 -8.518,-7.67l0,-2.574c2.767,0.022 5.417,1.047 7.463,2.906c2.031,1.846 3.302,4.362 3.579,7.082c0.038,0.375 0.057,0.756 0.057,1.133Z"
    ></path>
</svg>
